<svg width="28" height="28" viewBox="0 0 28 28" fill="none" xmlns="http://www.w3.org/2000/svg">
  <path d="M11.5 12.7778V20.1111M16.5 12.7778V20.1111M4 7.88889H24M22.75 7.88889L21.6663 22.7291C21.6214 23.3458 21.3391 23.923 20.8764 24.3444C20.4137 24.7657 19.8048 25 19.1725 25H8.8275C8.19518 25 7.58633 24.7657 7.12361 24.3444C6.66088 23.923 6.37865 23.3458 6.33375 22.7291L5.25 7.88889H22.75ZM17.75 7.88889V4.22222C17.75 3.89807 17.6183 3.58719 17.3839 3.35798C17.1495 3.12877 16.8315 3 16.5 3H11.5C11.1685 3 10.8505 3.12877 10.6161 3.35798C10.3817 3.58719 10.25 3.89807 10.25 4.22222V7.88889H17.75Z" stroke="white" stroke-width="1.5" stroke-linecap="round" stroke-linejoin="round"/>
</svg>
