<svg width="60" height="60" viewBox="0 0 60 60" fill="none" xmlns="http://www.w3.org/2000/svg">
  <g clip-path="url(#clip0_12_4013)">
    <path d="M57.7164 41.4805C59.224 37.8407 60 33.9397 60 30C60 22.0435 56.8393 14.4129 51.2132 8.7868C45.5871 3.16071 37.9565 0 30 0C22.0435 0 14.4129 3.16071 8.7868 8.7868C3.1607 14.4129 0 22.0435 0 30C0 33.9397 0.775973 37.8407 2.28361 41.4805C3.79125 45.1203 6.00104 48.4274 8.7868 51.2132C11.5726 53.999 14.8797 56.2087 18.5195 57.7164C22.1593 59.224 26.0603 60 30 60C33.9397 60 37.8407 59.224 41.4805 57.7164C45.1203 56.2087 48.4274 53.999 51.2132 51.2132C53.999 48.4274 56.2087 45.1203 57.7164 41.4805Z" fill="#5061D0"/>
    <path d="M21 39.6V20.4C21 20.1613 21.0948 19.9324 21.2636 19.7636C21.4324 19.5948 21.6613 19.5 21.9 19.5H26.1C26.3387 19.5 26.5676 19.5948 26.7364 19.7636C26.9052 19.9324 27 20.1613 27 20.4V39.6C27 39.8387 26.9052 40.0676 26.7364 40.2364C26.5676 40.4052 26.3387 40.5 26.1 40.5H21.9C21.6613 40.5 21.4324 40.4052 21.2636 40.2364C21.0948 40.0676 21 39.8387 21 39.6ZM33 39.6V20.4C33 20.1613 33.0948 19.9324 33.2636 19.7636C33.4324 19.5948 33.6613 19.5 33.9 19.5H38.1C38.3387 19.5 38.5676 19.5948 38.7364 19.7636C38.9052 19.9324 39 20.1613 39 20.4V39.6C39 39.8387 38.9052 40.0676 38.7364 40.2364C38.5676 40.4052 38.3387 40.5 38.1 40.5H33.9C33.6613 40.5 33.4324 40.4052 33.2636 40.2364C33.0948 40.0676 33 39.8387 33 39.6Z" fill="white" stroke="white" stroke-width="1.5"/>
  </g>
  <defs>
    <clipPath id="clip0_12_4013">
      <rect width="60" height="60" fill="white"/>
    </clipPath>
  </defs>
</svg>
