<svg width="60" height="60" viewBox="0 0 60 60" fill="none" xmlns="http://www.w3.org/2000/svg">
  <g clip-path="url(#clip0_12_3999)">
    <path d="M57.7164 41.4805C59.224 37.8407 60 33.9397 60 30C60 22.0435 56.8393 14.4129 51.2132 8.7868C45.5871 3.16071 37.9565 0 30 0C22.0435 0 14.4129 3.16071 8.7868 8.7868C3.1607 14.4129 0 22.0435 0 30C0 33.9397 0.775973 37.8407 2.28361 41.4805C3.79125 45.1203 6.00104 48.4274 8.7868 51.2132C11.5726 53.999 14.8797 56.2087 18.5195 57.7164C22.1593 59.224 26.0603 60 30 60C33.9397 60 37.8407 59.224 41.4805 57.7164C45.1203 56.2087 48.4274 53.999 51.2132 51.2132C53.999 48.4274 56.2087 45.1203 57.7164 41.4805Z" fill="#5061D0"/>
    <path d="M27.986 20.5368L38.7508 27.3425C39.212 27.634 39.5901 28.0322 39.8517 28.4955C40.1132 28.9588 40.25 29.4761 40.25 30.0016C40.25 30.5271 40.1132 31.0444 39.8517 31.5077C39.5901 31.971 39.212 32.366 38.7508 32.6575L27.986 39.4632C27.4789 39.784 26.8894 39.9682 26.2806 39.9962C25.6717 40.0243 25.0662 39.8951 24.5287 39.6224C23.9912 39.3498 23.5418 38.9439 23.2286 38.4481C22.9153 37.9524 22.7499 37.3853 22.75 36.8073V23.1991C22.7487 22.6206 22.9132 22.0527 23.226 21.556C23.5387 21.0593 23.988 20.6525 24.5257 20.3791C25.0634 20.1057 25.6694 19.9759 26.2789 20.0037C26.8883 20.0315 27.4784 20.2157 27.986 20.5368Z" fill="white"/>
  </g>
  <defs>
    <clipPath id="clip0_12_3999">
      <rect width="60" height="60" fill="white"/>
    </clipPath>
  </defs>
</svg>
