<svg width="48" height="48" viewBox="0 0 48 48" fill="none" xmlns="http://www.w3.org/2000/svg">
  <path fill-rule="evenodd" clip-rule="evenodd" d="M28.416 9.66C29.3227 9.94 30.1893 10.3 31.016 10.74L34.682 8.54C35.0643 8.31072 35.5122 8.21572 35.9546 8.27007C36.397 8.32442 36.8086 8.52502 37.124 8.84L39.16 10.876C39.475 11.1914 39.6756 11.603 39.7299 12.0454C39.7843 12.4878 39.6893 12.9357 39.46 13.318L37.26 16.984C37.7 17.8107 38.06 18.6773 38.34 19.584L42.486 20.622C42.9185 20.7303 43.3024 20.9801 43.5767 21.3316C43.851 21.6831 44 22.1161 44 22.562V25.438C44 25.8839 43.851 26.3169 43.5767 26.6684C43.3024 27.0199 42.9185 27.2697 42.486 27.378L38.34 28.416C38.06 29.3227 37.7 30.1893 37.26 31.016L39.46 34.682C39.6893 35.0643 39.7843 35.5122 39.7299 35.9546C39.6756 36.397 39.475 36.8086 39.16 37.124L37.124 39.16C36.8086 39.475 36.397 39.6756 35.9546 39.7299C35.5122 39.7843 35.0643 39.6893 34.682 39.46L31.016 37.26C30.1893 37.7 29.3227 38.06 28.416 38.34L27.378 42.486C27.2697 42.9185 27.0199 43.3024 26.6684 43.5767C26.3169 43.851 25.8839 44 25.438 44H22.562C22.1161 44 21.6831 43.851 21.3316 43.5767C20.9801 43.3024 20.7303 42.9185 20.622 42.486L19.584 38.34C18.6854 38.0623 17.8149 37.7007 16.984 37.26L13.318 39.46C12.9357 39.6893 12.4878 39.7843 12.0454 39.7299C11.603 39.6756 11.1914 39.475 10.876 39.16L8.84 37.124C8.52502 36.8086 8.32442 36.397 8.27007 35.9546C8.21572 35.5122 8.31072 35.0643 8.54 34.682L10.74 31.016C10.2993 30.1851 9.93769 29.3146 9.66 28.416L5.514 27.378C5.08184 27.2697 4.6982 27.0203 4.42393 26.6692C4.14965 26.3181 4.00046 25.8855 4 25.44V22.564C4.00001 22.1181 4.149 21.6851 4.42331 21.3336C4.69762 20.9821 5.08151 20.7323 5.514 20.624L9.66 19.586C9.94 18.6793 10.3 17.8127 10.74 16.986L8.54 13.32C8.31072 12.9377 8.21572 12.4898 8.27007 12.0474C8.32442 11.605 8.52502 11.1934 8.84 10.878L10.876 8.84C11.1914 8.52502 11.603 8.32442 12.0454 8.27007C12.4878 8.21572 12.9357 8.31072 13.318 8.54L16.984 10.74C17.8107 10.3 18.6773 9.94 19.584 9.66L20.622 5.514C20.7303 5.08184 20.9797 4.6982 21.3308 4.42393C21.6819 4.14965 22.1145 4.00046 22.56 4H25.436C25.8819 4.00001 26.3149 4.149 26.6664 4.42331C27.0179 4.69762 27.2677 5.08151 27.376 5.514L28.416 9.66ZM24 32C26.1217 32 28.1566 31.1571 29.6569 29.6569C31.1571 28.1566 32 26.1217 32 24C32 21.8783 31.1571 19.8434 29.6569 18.3431C28.1566 16.8429 26.1217 16 24 16C21.8783 16 19.8434 16.8429 18.3431 18.3431C16.8429 19.8434 16 21.8783 16 24C16 26.1217 16.8429 28.1566 18.3431 29.6569C19.8434 31.1571 21.8783 32 24 32Z" fill="white"/>
</svg>
